#!OML:ASF X:\für Bonn\!DataBase\2005_08_12_Daniel\c3d\Daniel.ASF
:FULLY-SPECIFIED
:DEGREES
107
root 4.58993 17.127 -0.310246 41.9803 -104.88 -91.4892
lowerback 48.4701 4.06283 1.29747
upperback 14.2445 1.30202 -10.8352
thorax -4.52006 -0.0315263 -12.9071
lowerneck 17.6378 6.21617 -1.16218
upperneck 27.4724 5.09699 5.61499
head 5.52716 1.80177 1.90564
rclavicle 1.04163e-013 -1.31993e-013
rhumerus -22.4133 2.70067 -81.9761
rradius 57.6254
rwrist -1.64431
rhand -21.2461 15.0407
rfingers 7.12502
rthumb 5.13671 -14.877
lclavicle 1.04163e-013 -1.31993e-013
lhumerus -49.3665 41.7091 46.4762
lradius 27.0355
lwrist 6.22731
lhand -20.9588 -9.54364
lfingers 7.12502
lthumb 5.41416 20.3672
rfemur 41.1256 6.76579 9.55314
rtibia 18.3088
rfoot -8.55241 5.52177
rtoes -4.49172
lfemur -79.646 7.54484 -17.6384
ltibia 47.1576
lfoot -14.4308 2.50238
ltoes -20.8077
108
root 4.55114 17.1126 -0.305838 40.8484 -104.907 -90.4385
lowerback 48.7317 4.16782 1.39952
upperback 14.2822 1.44942 -10.7725
thorax -4.48205 0.0381811 -12.9517
lowerneck 17.7302 6.25716 -0.896222
upperneck 27.9744 5.08901 5.71414
head 5.68937 1.81068 1.90074
rclavicle -6.36111e-015 1.27222e-013
rhumerus -23.0401 1.88987 -82.5708
rradius 58.2613
rwrist -2.74775
rhand -21.5553 15.3957
rfingers 7.12502
rthumb 4.83822 -14.5291
lclavicle -6.36111e-015 1.27222e-013
lhumerus -49.3649 40.9501 48.2268
lradius 28.7331
lwrist 9.78201
lhand -20.7098 -9.55298
lfingers 7.12502
lthumb 5.65458 20.3516
rfemur 40.8721 6.57724 9.31662
rtibia 18.9452
rfoot -8.71749 5.89672
rtoes -4.06699
lfemur -80.5057 8.47999 -18.8982
ltibia 49.3533
lfoot -13.1297 1.90756
ltoes -20.7509
109
root 4.51177 17.0986 -0.309642 40.3362 -104.791 -89.9003
lowerback 48.805 4.21144 1.51147
upperback 14.347 1.55576 -10.6846
thorax -4.39326 0.0926534 -12.9502
lowerneck 17.8474 6.27769 -0.63417
upperneck 28.3801 5.05846 5.83726
head 5.81666 1.81206 1.90255
rclavicle 5.96354e-014 -2.14687e-013
rhumerus -23.6578 1.11388 -83.2014
rradius 58.7085
rwrist -3.71877
rhand -21.9498 15.9802
rfingers 7.12502
rthumb 4.45723 -13.9529
lclavicle 5.96354e-014 -2.14687e-013
lhumerus -49.3344 40.0047 50.1104
lradius 30.6212
lwrist 12.9833
lhand -20.6902 -9.58997
lfingers 7.12502
lthumb 5.67345 20.3141
rfemur 40.572 6.27543 9.22343
rtibia 19.5975
rfoot -8.95784 6.096
rtoes -3.70719
lfemur -81.604 9.26628 -20.2972
ltibia 52.3747
lfoot -10.9161 1.89586
ltoes -19.1144
110
root 4.47549 17.0875 -0.320061 40.3152 -104.542 -89.7614
lowerback 48.7105 4.19715 1.62507
upperback 14.4434 1.61784 -10.5623
thorax -4.25297 0.128682 -12.8871
lowerneck 17.9857 6.28443 -0.378877
upperneck 28.6955 5.02419 5.9288
head 5.91241 1.81198 1.89329
rclavicle 1.23246e-014 3.18055e-014
rhumerus -24.2556 0.393654 -83.8549
rradius 58.9429
rwrist -4.44579
rhand -22.4013 16.7925
rfingers 7.12502
rthumb 4.02124 -13.1493
lclavicle 1.23246e-014 3.18055e-014
lhumerus -49.3601 38.9933 52.008
lradius 32.7004
lwrist 15.736
lhand -20.7526 -9.70028
lfingers 7.12502
lthumb 5.61317 20.2054
rfemur 40.2606 5.88497 9.27274
rtibia 20.1853
rfoot -9.21634 6.15155
rtoes -3.31626
lfemur -82.9044 9.85779 -21.6686
ltibia 55.8998
lfoot -8.18585 2.66659
ltoes -16.9704
111
root 4.44607 17.079 -0.333064 40.4937 -104.296 -89.7488
lowerback 48.5401 4.19448 1.70375
upperback 14.5275 1.68708 -10.4353
thorax -4.11381 0.168406 -12.8027
lowerneck 18.1541 6.28361 -0.13928
upperneck 28.9488 4.98074 6.0413
head 5.98254 1.80813 1.89201
rclavicle 4.11484e-014 1.11319e-014
rhumerus -24.9579 -0.353323 -84.5484
rradius 59.0815
rwrist -4.88407
rhand -22.878 17.7293
rfingers 7.12502
rthumb 3.56088 -12.2207
lclavicle 4.11484e-014 1.11319e-014
lhumerus -49.4551 38.0533 53.7769
lradius 34.8232
lwrist 17.9123
lhand -20.8064 -10.0175
lfingers 7.12502
lthumb 5.56128 19.8896
rfemur 39.8592 5.51595 9.36806
rtibia 20.7887
rfoot -9.51248 6.11749
rtoes -3.10993
lfemur -84.2515 10.383 -23.0372
ltibia 59.717
lfoot -5.37645 3.85988
ltoes -15.03
112
root 4.42258 17.0712 -0.348051 40.937 -104.045 -89.9295
lowerback 48.3215 4.1909 1.72472
upperback 14.6053 1.7345 -10.2968
thorax -3.97964 0.195193 -12.6664
lowerneck 18.2978 6.28315 0.0449405
upperneck 29.1356 4.94549 6.13717
head 6.03196 1.8051 1.89385
rclavicle 4.37326e-015 -2.38542e-014
rhumerus -25.751 -1.09099 -85.251
rradius 59.2097
rwrist -4.95301
rhand -23.3229 18.6119
rfingers 7.12502
rthumb 3.13129 -11.3448
lclavicle 4.37326e-015 -2.38542e-014
lhumerus -49.6007 37.2377 55.4109
lradius 37.0214
lwrist 19.568
lhand -20.7782 -10.434
lfingers 7.12502
lthumb 5.58848 19.4723
rfemur 39.3008 5.17233 9.508
rtibia 21.5422
rfoot -9.87708 6.01703
rtoes -2.79518
lfemur -85.5563 10.8078 -24.3446
ltibia 63.6227
lfoot -2.41684 5.44704
ltoes -12.5524
113
root 4.39864 17.0581 -0.363039 41.6019 -103.793 -90.2249
lowerback 47.1116 4.11779 1.94375
upperback 15.5706 1.81073 -10.1277
thorax -3.82313 0.196391 -12.7556
lowerneck 18.466 6.26676 0.252532
upperneck 29.2759 4.89735 6.23248
head 6.06374 1.79854 1.89047
rclavicle 4.01545e-014 3.18055e-014
rhumerus -26.6486 -1.81979 -85.9955
rradius 59.2994
rwrist -4.80673
rhand -23.7681 19.2974
rfingers 7.12502
rthumb 2.70135 -10.6653
lclavicle 4.01545e-014 3.18055e-014
lhumerus -49.7312 36.5063 56.8475
lradius 39.16
lwrist 20.6744
lhand -20.5629 -11.0174
lfingers 7.12502
lthumb 5.79635 18.8834
rfemur 38.5311 4.84191 9.6802
rtibia 22.5126
rfoot -10.3771 5.88762
rtoes -2.7577
lfemur -86.7921 11.1291 -25.5498
ltibia 67.5468
lfoot 0.171767 7.04362
ltoes -10.5231
